<svg xmlns="http://www.w3.org/2000/svg" version="1.1" xmlns:xlink="http://www.w3.org/1999/xlink" xmlns:svgjs="http://svgjs.dev/svgjs" width="100%" height="100%" viewBox="0 0 1000 600"><rect width="1000" height="600" x="0" y="0" fill="#ffffff"/><g><circle r="166.66666666666666" cx="454.23124186197913" cy="476.4534845196555" fill="#ff385c" transform="matrix(0.43468497437523584,0,0,0.43468497437523584,0,92.89283189098508)"/><path d="M514.127072726608 551.4534957846944L496.7461208718706 551.4534957846944L462.46040762416914 503.2392115301142Q456.6865982751639 503.8939734150529 450.4663603682458 503.8939734150529L450.4663603682458 503.8939734150529L410.1985044445131 503.8939734150529L410.1985044445131 551.4534957846944L394.335409686679 551.4534957846944L394.335409686679 401.4535003260005L450.4663603682458 401.4535003260005Q479.1865975939679 401.4535003260005 495.4663590058539 415.17373800585324Q511.74612041774 428.893975685706 511.74612041774 452.8820701975527L511.74612041774 452.8820701975527Q511.74612041774 470.44159347545536 502.8770730672061 482.5546883468221Q493.97826381281135 494.66778321818884 477.4604071700385 500.02492591314217L477.4604071700385 500.02492591314217L514.127072726608 551.4534957846944ZM450.04969371419384 490.38206906222615Q472.34135970597197 490.38206906222615 484.12707363486936 480.53087888428416Q495.91278756376676 470.6796887063422 495.91278756376676 452.8820701975527L495.91278756376676 452.8820701975527Q495.91278756376676 434.6677850347113 484.12707363486936 424.90588056835185Q472.34135970597197 415.17373800585324 450.04969371419384 415.17373800585324L450.04969371419384 415.17373800585324L410.1985044445131 415.17373800585324L410.1985044445131 490.38206906222615L450.04969371419384 490.38206906222615Z " fill="#ffffff" transform="matrix(0.43468497437523584,0,0,0.43468497437523584,0,92.89283189098508)"/><path d="M816.4941673234455 550.4494109488894L800.2055838373255 550.4494109488894L768.0746794263495 505.26532662095417Q762.6637458710288 505.87893764269154 756.8344411645237 505.87893764269154L756.8344411645237 505.87893764269154L719.0973633276741 505.87893764269154L719.0973633276741 550.4494109488894L704.2312417555818 550.4494109488894L704.2312417555818 409.8767041508688L756.8344411645237 409.8767041508688Q783.7496518907319 409.8767041508688 799.0062532039298 422.7346441972751Q814.2628545171276 435.5925842436813 814.2628545171276 458.073060767333L814.2628545171276 458.073060767333Q814.2628545171276 474.5289927139267 805.9512143135939 485.88079661606844Q797.6116826999812 497.2326005182101 782.1319501061515 502.25305433242517L782.1319501061515 502.25305433242517L816.4941673234455 550.4494109488894ZM756.443961423418 493.21623746683815Q777.3346275725683 493.21623746683815 788.3796259638414 483.9841807306983Q799.4246243551144 474.7521239945585 799.4246243551144 458.073060767333L799.4246243551144 458.073060767333Q799.4246243551144 441.00351779900194 788.3796259638414 431.855135293099Q777.3346275725683 422.7346441972751 756.443961423418 422.7346441972751L756.443961423418 422.7346441972751L719.0973633276741 422.7346441972751L719.0973633276741 493.21623746683815L756.443961423418 493.21623746683815ZM891.5778432560389 538.7908015358789Q901.4235110139161 538.7908015358789 909.7630426275289 535.2764838659284Q918.1025742411416 531.7621661959779 923.9318789476469 524.9566621367087L923.9318789476469 524.9566621367087L931.9646050503909 534.1887188728485Q924.9359697104899 542.6119247166981 914.4766909308752 547.0466589192547Q904.0453035613396 551.4535017117323 891.3826033854862 551.4535017117323L891.3826033854862 551.4535017117323Q875.1219113094453 551.4535017117323 862.4592111335918 544.5364320121472Q849.8244023678174 537.5914709024831 842.7957670279163 525.3471418778142Q835.7671316880153 513.1028128531455 835.7671316880153 497.62308025931577L835.7671316880153 497.62308025931577Q835.7671316880153 482.1712390755651 842.4889615170476 469.92691005089625Q849.21079134608 457.6825810262274 861.0646406296432 450.8491855568792Q872.9184899132065 444.01579008753095 887.9798513558515 444.01579008753095L887.9798513558515 444.01579008753095Q902.0371220356535 444.01579008753095 913.3889259377953 450.4308144056946Q924.712838429858 456.8737301339372 931.4625596689693 468.30920826631586Q938.1843894980017 479.77257780877346 938.5748692391073 494.41556810023394L938.5748692391073 494.41556810023394L851.8325838935034 511.2898711980122Q855.8489469448754 524.1478112444184 866.3918999547269 531.4832520951882Q876.9348529645785 538.7908015358789 891.5778432560389 538.7908015358789L891.5778432560389 538.7908015358789ZM887.9798513558515 456.2601191121998Q876.9348529645785 456.2601191121998 868.2048416098602 461.3921385667307Q859.4469388450627 466.49626661118265 854.5380506711637 475.6446491170856Q849.6291624972646 484.7930316229885 849.6291624972646 496.61898949647275L849.6291624972646 496.61898949647275Q849.6291624972646 499.63126178500175 849.8244023678174 501.0537236990294L849.8244023678174 501.0537236990294L924.3223586887525 486.5780818680427Q921.9236974219608 473.32966208053085 912.0780296640836 464.79489059636535Q902.2323619062064 456.2601191121998 887.9798513558515 456.2601191121998L887.9798513558515 456.2601191121998ZM1021.523922813971 444.01579008753095Q1041.4104982002782 444.01579008753095 1053.1527818435256 455.5628338602255Q1064.8950654867729 467.1098776329201 1064.8950654867729 489.1998744154661L1064.8950654867729 489.1998744154661L1064.8950654867729 550.4494109488894L1050.642554936418 550.4494109488894L1050.642554936418 490.59444491941474Q1050.642554936418 474.13851297282105 1042.4145889631213 465.4921758483396Q1034.1587315797456 456.8737301339372 1018.9021302665476 456.8737301339372L1018.9021302665476 456.8737301339372Q1001.8325872982166 456.8737301339372 991.9032453101024 466.99831199260416Q981.9460119119092 477.15078526135005 981.9460119119092 495.0291791219713L981.9460119119092 495.0291791219713L981.9460119119092 550.4494109488894L967.6935013615544 550.4494109488894L967.6935013615544 444.8246409798212L981.3602923002509 444.8246409798212L981.3602923002509 464.29284521494384Q987.189597006756 454.6703087376984 997.5094187359758 449.3430494126147Q1007.8571318752745 444.01579008753095 1021.523922813971 444.01579008753095L1021.523922813971 444.01579008753095ZM1150.633260069534 533.7703477216639L1155.6537138837489 544.0343866307257Q1151.6373508323768 547.6323785309131 1145.8359375359505 549.5568858263622Q1140.0066328294454 551.4535017117323 1133.5637171012027 551.4535017117323L1133.5637171012027 551.4535017117323Q1118.7254869391895 551.4535017117323 1110.6927608364454 543.4207756089883Q1102.6600347337014 535.3880495062442 1102.6600347337014 520.7171678047048L1102.6600347337014 520.7171678047048L1102.6600347337014 421.73055343443207L1116.9125452840563 421.73055343443207L1116.9125452840563 444.8246409798212L1148.8482098244797 444.8246409798212L1148.8482098244797 456.8737301339372L1116.9125452840563 456.8737301339372L1116.9125452840563 519.9362083224936Q1116.9125452840563 529.3635049291863 1121.5146279470866 534.2723931030854Q1126.144602020196 539.2091726870635 1134.9861790152304 539.2091726870635L1134.9861790152304 539.2091726870635Q1144.6087154924758 539.2091726870635 1150.633260069534 533.7703477216639L1150.633260069534 533.7703477216639ZM1171.719166089237 502.25305433242517L1171.719166089237 489.8134854372035L1224.3502569082577 489.8134854372035L1224.3502569082577 502.25305433242517L1171.719166089237 502.25305433242517ZM1338.3982327211756 444.8246409798212L1352.6786346816093 444.8246409798212L1352.6786346816093 550.4494109488894L1339.011843742913 550.4494109488894L1339.011843742913 529.5587447997391Q1332.5968194247494 540.2132634499064 1322.0538664148976 545.81943687578Q1311.5109134050463 551.4535017117323 1298.2346022074553 551.4535017117323L1298.2346022074553 551.4535017117323Q1283.3963720454421 551.4535017117323 1271.347282891326 544.620106242384Q1259.29819373721 537.7867107730359 1252.4647982678619 525.542381748367Q1245.6314027985136 513.2980527236982 1245.6314027985136 497.62308025931577L1245.6314027985136 497.62308025931577Q1245.6314027985136 481.9759992050123 1252.4647982678619 469.73167018034343Q1259.29819373721 457.45944974559563 1271.347282891326 450.7376199165633Q1283.3963720454421 444.01579008753095 1298.2346022074553 444.01579008753095L1298.2346022074553 444.01579008753095Q1311.0925422538617 444.01579008753095 1321.4402553931604 449.3430494126147Q1331.7879685324592 454.6703087376984 1338.3982327211756 464.9064562366812L1338.3982327211756 464.9064562366812L1338.3982327211756 444.8246409798212ZM1299.4618242509302 538.7908015358789Q1310.5068226422031 538.7908015358789 1319.4320738674744 533.686673491427Q1328.3573250927457 528.5546540368961 1333.4893445472762 519.1273574302033Q1338.6213640018073 509.6721694134318 1338.6213640018073 497.62308025931577L1338.6213640018073 497.62308025931577Q1338.6213640018073 485.57399110519975 1333.4893445472762 476.1466944985071Q1328.3573250927457 466.7193978918144 1319.4320738674744 461.5873784372835Q1310.5068226422031 456.4553589827526 1299.4618242509302 456.4553589827526L1299.4618242509302 456.4553589827526Q1288.1936945790253 456.4553589827526 1279.2684433537543 461.5873784372835Q1270.3431921284832 466.7193978918144 1265.2111726739522 476.1466944985071Q1260.0791532194212 485.57399110519975 1260.0791532194212 497.62308025931577L1260.0791532194212 497.62308025931577Q1260.0791532194212 509.6721694134318 1265.2111726739522 519.1273574302033Q1270.3431921284832 528.5546540368961 1279.2684433537543 533.686673491427Q1288.1936945790253 538.7908015358789 1299.4618242509302 538.7908015358789L1299.4618242509302 538.7908015358789ZM1384.5864078119537 502.25305433242517L1384.5864078119537 489.8134854372035L1437.2174986309744 489.8134854372035L1437.2174986309744 502.25305433242517L1384.5864078119537 502.25305433242517ZM1524.7686348688685 409.8767041508688Q1551.683845595077 409.8767041508688 1566.9404469082747 422.7346441972751Q1582.1970482214726 435.5925842436813 1582.1970482214726 458.073060767333L1582.1970482214726 458.073060767333Q1582.1970482214726 480.5535372909847 1566.9404469082747 493.327803107154Q1551.683845595077 506.0741775132444 1524.7686348688685 506.0741775132444L1524.7686348688685 506.0741775132444L1487.0036656219402 506.0741775132444L1487.0036656219402 550.4494109488894L1472.1654354599268 550.4494109488894L1472.1654354599268 409.8767041508688L1524.7686348688685 409.8767041508688ZM1524.378155127763 493.0209975962853Q1545.2409298668342 493.0209975962853 1556.285928258107 483.8726150903824Q1567.3309266493804 474.7521239945585 1567.3309266493804 458.073060767333L1567.3309266493804 458.073060767333Q1567.3309266493804 441.00351779900194 1556.285928258107 431.855135293099Q1545.2409298668342 422.7346441972751 1524.378155127763 422.7346441972751L1524.378155127763 422.7346441972751L1487.0036656219402 422.7346441972751L1487.0036656219402 493.0209975962853L1524.378155127763 493.0209975962853ZM1643.0561050137903 551.4535017117323Q1628.8035944634353 551.4535017117323 1621.049782461481 543.4207756089883Q1613.3238618696057 535.3880495062442 1613.3238618696057 521.1355389558894L1613.3238618696057 521.1355389558894L1613.3238618696057 401.45349830701923L1627.5763724199605 401.45349830701923L1627.5763724199605 519.9362083224936Q1627.5763724199605 529.3635049291863 1632.0111066225172 534.2723931030854Q1636.4179494149948 539.2091726870635 1645.2595264100291 539.2091726870635L1645.2595264100291 539.2091726870635Q1650.8935912459815 539.2091726870635 1654.9099542973536 537.3962310319303L1654.9099542973536 537.3962310319303L1655.9140450601965 549.2500803154935Q1649.6663692025068 551.4535017117323 1643.0561050137903 551.4535017117323L1643.0561050137903 551.4535017117323ZM1755.5142704522068 444.8246409798212L1769.7667810025614 444.8246409798212L1769.7667810025614 550.4494109488894L1756.0999900638649 550.4494109488894L1756.0999900638649 529.5587447997391Q1749.6849657457014 540.2132634499064 1739.1420127358497 545.81943687578Q1728.5990597259984 551.4535017117323 1715.3506399384864 551.4535017117323L1715.3506399384864 551.4535017117323Q1700.4845183663942 551.4535017117323 1688.435429212278 544.620106242384Q1676.3863400581622 537.7867107730359 1669.552944588814 525.542381748367Q1662.7195491194657 513.2980527236982 1662.7195491194657 497.62308025931577L1662.7195491194657 497.62308025931577Q1662.7195491194657 481.9759992050123 1669.552944588814 469.73167018034343Q1676.3863400581622 457.45944974559563 1688.435429212278 450.7376199165633Q1700.4845183663942 444.01579008753095 1715.3506399384864 444.01579008753095L1715.3506399384864 444.01579008753095Q1728.2085799848928 444.01579008753095 1738.5284017141125 449.3430494126147Q1748.8761148534113 454.6703087376984 1755.5142704522068 464.9064562366812L1755.5142704522068 464.9064562366812L1755.5142704522068 444.8246409798212ZM1716.5499705718826 538.7908015358789Q1727.5949689631552 538.7908015358789 1736.5202201884263 533.686673491427Q1745.4733628237764 528.5546540368961 1750.5774908682288 519.1273574302033Q1755.7095103227593 509.6721694134318 1755.7095103227593 497.62308025931577L1755.7095103227593 497.62308025931577Q1755.7095103227593 485.57399110519975 1750.5774908682288 476.1466944985071Q1745.4733628237764 466.7193978918144 1736.5202201884263 461.5873784372835Q1727.5949689631552 456.4553589827526 1716.5499705718826 456.4553589827526L1716.5499705718826 456.4553589827526Q1705.3097323100565 456.4553589827526 1696.3565896747064 461.5873784372835Q1687.4313384494353 466.7193978918144 1682.2993189949043 476.1466944985071Q1677.1951909504523 485.57399110519975 1677.1951909504523 497.62308025931577L1677.1951909504523 497.62308025931577Q1677.1951909504523 509.6721694134318 1682.2993189949043 519.1273574302033Q1687.4313384494353 528.5546540368961 1696.3565896747064 533.686673491427Q1705.3097323100565 538.7908015358789 1716.5499705718826 538.7908015358789L1716.5499705718826 538.7908015358789ZM1853.3015541890836 551.4535017117323Q1837.65447313478 551.4535017117323 1825.2985784697953 544.620106242384Q1812.9426838048107 537.7867107730359 1805.9140484649097 525.4587075181302Q1798.8854131250087 513.1028128531455 1798.8854131250087 497.62308025931577L1798.8854131250087 497.62308025931577Q1798.8854131250087 482.1712390755651 1805.9140484649097 469.92691005089625Q1812.9426838048107 457.6825810262274 1825.2985784697953 450.8491855568792Q1837.65447313478 444.01579008753095 1853.3015541890836 444.01579008753095L1853.3015541890836 444.01579008753095Q1866.9683451277797 444.01579008753095 1877.7065380081845 449.3430494126147Q1888.4447308885888 454.6703087376984 1894.6645153361997 464.9064562366812L1894.6645153361997 464.9064562366812L1884.0378880961111 472.13033144713506Q1878.8221944113434 464.29284521494384 1870.7894683085992 460.38804780388773Q1862.756742205855 456.4553589827526 1853.3015541890836 456.4553589827526L1853.3015541890836 456.4553589827526Q1841.866076056705 456.4553589827526 1832.7176935508019 461.5873784372835Q1823.5972024549783 466.7193978918144 1818.4651830004473 476.1466944985071Q1813.3331635459162 485.57399110519975 1813.3331635459162 497.62308025931577L1813.3331635459162 497.62308025931577Q1813.3331635459162 509.89530069406356 1818.4651830004473 519.2110316604403Q1823.5972024549783 528.5546540368961 1832.7176935508019 533.686673491427Q1841.866076056705 538.7908015358789 1853.3015541890836 538.7908015358789L1853.3015541890836 538.7908015358789Q1862.756742205855 538.7908015358789 1870.7894683085992 534.9975697651387Q1878.8221944113434 531.1764465843195 1884.0378880961111 523.3389603521282L1884.0378880961111 523.3389603521282L1894.6645153361997 530.5628355625821Q1888.4447308885888 540.798983061565 1877.5949723678682 546.1262423866486Q1866.7731052572271 551.4535017117323 1853.3015541890836 551.4535017117323L1853.3015541890836 551.4535017117323ZM1965.9549594980526 538.7908015358789Q1975.80062725593 538.7908015358789 1984.1401588695426 535.2764838659284Q1992.4796904831555 531.7621661959779 1998.308995189661 524.9566621367087L1998.308995189661 524.9566621367087L2006.3417212924046 534.1887188728485Q1999.3130859525036 542.6119247166981 1988.853807172889 547.0466589192547Q1978.4224198033535 551.4535017117323 1965.7597196275 551.4535017117323L1965.7597196275 551.4535017117323Q1949.4990275514592 551.4535017117323 1936.8363273756054 544.5364320121472Q1924.201518609831 537.5914709024831 1917.17288326993 525.3471418778142Q1910.144247930029 513.1028128531455 1910.144247930029 497.62308025931577L1910.144247930029 497.62308025931577Q1910.144247930029 482.1712390755651 1916.8660777590612 469.92691005089625Q1923.587907588094 457.6825810262274 1935.4417568716572 450.8491855568792Q1947.2956061552204 444.01579008753095 1962.3569675978652 444.01579008753095L1962.3569675978652 444.01579008753095Q1976.4142382776672 444.01579008753095 1987.7660421798091 450.4308144056946Q1999.089954671872 456.8737301339372 2005.8396759109833 468.30920826631586Q2012.5615057400155 479.77257780877346 2012.951985481121 494.41556810023394L2012.951985481121 494.41556810023394L1926.2097001355169 511.2898711980122Q1930.226063186889 524.1478112444184 1940.7690161967407 531.4832520951882Q1951.3119692065925 538.7908015358789 1965.9549594980526 538.7908015358789L1965.9549594980526 538.7908015358789ZM1962.3569675978652 456.2601191121998Q1951.3119692065925 456.2601191121998 1942.581957851874 461.3921385667307Q1933.8240550870769 466.49626661118265 1928.9151669131775 475.6446491170856Q1924.0062787392785 484.7930316229885 1924.0062787392785 496.61898949647275L1924.0062787392785 496.61898949647275Q1924.0062787392785 499.63126178500175 1924.201518609831 501.0537236990294L1924.201518609831 501.0537236990294L1998.699474930766 486.5780818680427Q1996.3008136639746 473.32966208053085 1986.4551459060976 464.79489059636535Q1976.6094781482202 456.2601191121998 1962.3569675978652 456.2601191121998L1962.3569675978652 456.2601191121998Z " fill="#ff385c" transform="matrix(0.43468497437523584,0,0,0.43468497437523584,0,92.89283189098508)"/></g></svg>